<?xml version="1.0" encoding="utf-8"?><svg viewBox="0 0 24 24" xmlns="http://www.w3.org/2000/svg" xmlns:xlink="http://www.w3.org/1999/xlink"><style>:root>svg{display:none}:root>svg:target{display:block}</style><svg fill="none" viewBox="0 0 24 24" id="Compare" xmlns="http://www.w3.org/2000/svg"><path d="M3.114 18.77a6.85 6.85 0 0 1 .382-1.27L6.525 12l3.03 5.5c.125.365.318.802.378 1.27m-6.819 0c-.37 1.878.014 4.23 3.41 4.23 3.398 0 3.65-2.352 3.409-4.23m-6.819 0h6.819M14.114 15.77c.092-.468.23-.905.382-1.27L17.525 9l3.03 5.5c.125.365.318.802.378 1.27m-6.819 0c-.37 1.878.014 4.23 3.41 4.23 3.398 0 3.65-2.352 3.409-4.23m-6.819 0h6.819" stroke="#212121" stroke-width="2" stroke-linejoin="round"/><path d="m2 13 9.615-2.604M20.462 8l-8.847 2.396m0-7.396v7.396" stroke="#212121" stroke-width="2" stroke-linecap="round"/></svg></svg>